{"title":"Dracula.2012.DVDRip.XviD.AC3.HORiZON-ArtSubs","uid":8256859,"size":1468035405,"categoryP":"video","categoryS":"movies","magnet":"?xt=urn:btih:3e0d58a045d2a0944f0f65303f6ee1c35c64c628&amp;dn=Dracula.2012.DVDRip.XviD.AC3.HORiZON-ArtSubs&amp;tr=udp%3A%2F%2Ftracker.openbittorrent.com%3A80&amp;tr=udp%3A%2F%2Fopen.demonii.com%3A1337&amp;tr=udp%3A%2F%2Ftracker.coppersurfer.tk%3A6969&amp;tr=udp%3A%2F%2Fexodus.desync.com%3A6969","seeders":1,"leechers":0,"uploader":"lletaif","files":2,"time":1363284053,"description":"The HORiZON-ArtSubs has the honor to present the new work of the Master of Horror, Dario Argento\n\n\nDracula\n\nCountry:\nItaly/2012\n\nLanguage:\nEnglish\n\nSubtitle:\nFrench\n\nDirector:\nDario Argento\n\nWriters:\nDario Argento (screenplay), Enrique Cerezo (screenplay)\n\nStars:\nRutger Hauer, Asia Argento, Thomas Kretschmann \n\nSynopsis:\nThe tale begins with Jonathan Harker, journeying by train and carriage from England to Count Dracula's crumbling.\n\nTrivia:\nNew film from Master of Horror Dario Argento (&quot;Suspiria&quot;)\nOfficial Selection Cannes Film Festival 2012\n\nImdb: &lt;a href=&quot;\nhttp://www.imdb.com/title/tt1852770&quot; rel=&quot;nofollow&quot; target=&quot;_NEW&quot;&gt;\nhttp://www.imdb.com/title/tt1852770&lt;/a&gt;\n\nTrailer: &lt;a href=&quot;\nhttp://cinerepublic.filmtv.it/cannes-2012-dracula-3d-trailer-internazionale-per/12065/&quot; rel=&quot;nofollow&quot; target=&quot;_NEW&quot;&gt;\nhttp://cinerepublic.filmtv.it/cannes-2012-dracula-3d-trailer-internazionale-per/12065/&lt;/a&gt;\n\n\nMedia Info:\n\nGeneral\nComplete name                            : Dracula.2012.DVDRip.XviD.AC3.HORiZON-ArtSubs\nFormat                                   : AVI\nFormat/Info                              : Audio Video Interleave\nFile size                                : 1.37 GiB\nDuration                                 : 1h 45mn\nOverall bit rate                         : 1 856 Kbps\n\nVideo\nID                                       : 0\nFormat                                   : MPEG-4 Visual\nFormat profile                           : Advanced Simple@L5\nFormat settings, BVOP                    : 2\nFormat settings, QPel                    : No\nFormat settings, GMC                     : No warppoints\nFormat settings, Matrix                  : Default (MPEG)\nCodec ID                                 : XVID\nCodec ID/Hint                            : XviD\nDuration                                 : 1h 45mn\nBit rate                                 : 1 398 Kbps\nWidth                                    : 640 pixels\nHeight                                   : 272 pixels\nDisplay aspect ratio                     : 2.35:1\nFrame rate                               : 25.000 fps\nColor space                              : YUV\nChroma subsampling                       : 4:2:0\nBit depth                                : 8 bits\nScan type                                : Progressive\nCompression mode                         : Lossy\nBits/(Pixel*Frame)                       : 0.321\nStream size                              : 1.03 GiB (75%)\nWriting library                          : XviD 1.1.0 (UTC 2005-11-22)\n\nAudio\nID                                       : 1\nFormat                                   : AC-3\nFormat/Info                              : Audio Coding 3\nMode extension                           : CM (complete main)\nFormat settings, Endianness              : Big\nCodec ID                                 : 2000\nDuration                                 : 1h 45mn\nBit rate mode                            : Constant\nBit rate                                 : 448 Kbps\nChannel(s)                               : 6 channels\nChannel positions                        : Front: L C R, Side: L R, LFE\nSampling rate                            : 48.0 KHz\nBit depth                                : 16 bits\nCompression mode                         : Lossy\nDelay relative to video                  : 16ms\nStream size                              : 338 MiB (24%)\nAlignment                                : Split accross interleaves\nInterleave, duration                     : 40 ms (1.00 video frame)\nInterleave, preload duration             : 500 ms\n\n","torrent":{"xt":"urn:btih:3e0d58a045d2a0944f0f65303f6ee1c35c64c628","amp;dn":"Dracula.2012.DVDRip.XviD.AC3.HORiZON-ArtSubs","amp;tr":["udp%3A%2F%2Ftracker.openbittorrent.com%3A80","udp%3A%2F%2Fopen.demonii.com%3A1337","udp%3A%2F%2Ftracker.coppersurfer.tk%3A6969","udp%3A%2F%2Fexodus.desync.com%3A6969"],"infoHash":"3e0d58a045d2a0944f0f65303f6ee1c35c64c628","infoHashBuffer":{"type":"Buffer","data":[62,13,88,160,69,210,160,148,79,15,101,48,63,110,225,195,92,100,198,40]},"announce":[],"urlList":[]}}